<svg xmlns="http://www.w3.org/2000/svg" width="40" height="40" viewBox="0 0 40 40" fill="none">
  <rect width="40" height="40" rx="8" fill="#3498DB"/>
  <path d="M10 20C10 14.4772 14.4772 10 20 10C25.5228 10 30 14.4772 30 20C30 25.5228 25.5228 30 20 30C14.4772 30 10 25.5228 10 20Z" fill="white"/>
  <path d="M15 17C15 16.4477 15.4477 16 16 16H24C24.5523 16 25 16.4477 25 17V23C25 23.5523 24.5523 24 24 24H16C15.4477 24 15 23.5523 15 23V17Z" fill="#3498DB"/>
  <path d="M20 14L22.5 18.5H17.5L20 14Z" fill="#3498DB"/>
</svg> 